# xmcd
#
# Track frame offsets:
#	183
#	16480
#	34038
#	48180
#	66135
#	78330
#	92050
#	109538
#	123943
#	137088
#
# Disc length: 2088 seconds
#
# Revision: 1
# Processed by: cddbd v1.5.2PL0 Copyright (c) Steve Scherf et al.
# Submitted via: EasyCDDAExtractor 12.0.1.1
#
DISCID=7708260a
DTITLE=Horst Krush - Portrait Of A Cowboy
DYEAR=1991
DGENRE=Country
TTITLE0=Portrait Of A Cowboy
TTITLE1=Stormy Days
TTITLE2=True Blue Country Gal
TTITLE3=Goin' Home Together
TTITLE4=Take Me Home
TTITLE5=Down From The Mountain
TTITLE6=The Ballad Of Frenchy
TTITLE7=Dream That American Dream
TTITLE8=Livin' Free (Duck Lake Song)
TTITLE9=A Cowboy's Prayer
EXTD=
EXTT0=
EXTT1=
EXTT2=
EXTT3=
EXTT4=
EXTT5=
EXTT6=
EXTT7=
EXTT8=
EXTT9=
PLAYORDER=
